<svg id="Layer_1" data-name="Layer 1" xmlns="http://www.w3.org/2000/svg" viewBox="0 0 32 32"><defs><style>.cls-1{fill:#fff;}.cls-1,.cls-2{stroke:#000;stroke-miterlimit:10;}.cls-2{fill:none;}</style></defs><polyline class="cls-1" points="15.5 31.5 15.5 3.35 15.5 1"/><line class="cls-1" x1="16.5" y1="31.5" x2="16.5" y2="2.17"/><line class="cls-1" x1="14.5" y1="31.5" x2="14.5" y2="2.17"/><line class="cls-1" x1="13.5" y1="31.5" x2="13.5" y2="3.35"/><line class="cls-1" x1="17.5" y1="31.5" x2="17.5" y2="3.35"/><line class="cls-2" x1="24.5" y1="22.5" x2="17.5" y2="22.5"/><line class="cls-2" x1="24.5" y1="6.5" x2="24.5" y2="22.5"/><line class="cls-2" x1="23.5" y1="5.5" x2="23.5" y2="22.5"/><line class="cls-2" x1="22.5" y1="6.5" x2="22.5" y2="22.5"/><line class="cls-2" x1="22.5" y1="21.5" x2="17.5" y2="21.5"/><line class="cls-2" x1="13.5" y1="17.5" x2="8.5" y2="17.5"/><line class="cls-2" x1="8.5" y1="8.5" x2="8.5" y2="17.5"/><line class="cls-2" x1="9.5" y1="7.5" x2="9.5" y2="17.5"/><line class="cls-2" x1="9.5" y1="16.5" x2="13.5" y2="16.5"/><line class="cls-2" x1="10.5" y1="8.5" x2="10.5" y2="16.5"/></svg>