<svg id="Layer_1" data-name="Layer 1" xmlns="http://www.w3.org/2000/svg" viewBox="0 0 32 32"><defs><style>.cls-1{fill:none;stroke:#000;stroke-miterlimit:10;}</style></defs><line class="cls-1" x1="3.5" y1="19.5" x2="31.5" y2="19.5"/><line class="cls-1" x1="1.5" y1="19.5" x2="1.5" y2="17.5"/><line class="cls-1" x1="3.5" y1="17.5" x2="1.5" y2="17.5"/><line class="cls-1" x1="3.5" y1="14.5" x2="3.5" y2="18.5"/><line class="cls-1" x1="12.5" y1="14.5" x2="3.5" y2="14.5"/><line class="cls-1" x1="6.5" y1="11.5" x2="6.5" y2="14.5"/><line class="cls-1" x1="11.5" y1="11.5" x2="6.5" y2="11.5"/><line class="cls-1" x1="11.5" y1="12.5" x2="11.5" y2="11.5"/><line class="cls-1" x1="31.5" y1="13.5" x2="31.5" y2="19.5"/><line class="cls-1" x1="29.5" y1="13.5" x2="31.5" y2="13.5"/><line class="cls-1" x1="29.5" y1="10.5" x2="29.5" y2="13.5"/><line class="cls-1" x1="23.5" y1="10.5" x2="29.5" y2="10.5"/><line class="cls-1" x1="23.5" y1="12.5" x2="23.5" y2="10.5"/><line class="cls-1" x1="24.5" y1="7.5" x2="24.5" y2="10.5"/><line class="cls-1" x1="15.5" y1="7.5" x2="24.5" y2="7.5"/><line class="cls-1" x1="15.5" y1="11.5" x2="15.5" y2="7.5"/><line class="cls-1" x1="17.5" y1="11.5" x2="14.5" y2="11.5"/><line class="cls-1" x1="10.5" y1="8.5" x2="10.5" y2="11.5"/><line class="cls-1" x1="15.5" y1="8.5" x2="10.5" y2="8.5"/></svg>