<svg id="Layer_1" data-name="Layer 1" xmlns="http://www.w3.org/2000/svg" viewBox="0 0 32 32"><defs><style>.cls-1{fill:none;stroke:#000;stroke-miterlimit:10;}</style></defs><line class="cls-1" x1="11.51" y1="26.52" x2="11.51" y2="30.52"/><line class="cls-1" x1="13.51" y1="30.52" x2="11.51" y2="30.52"/><line class="cls-1" x1="17.51" y1="26.52" x2="17.51" y2="30.52"/><line class="cls-1" x1="19.51" y1="30.52" x2="17.51" y2="30.52"/><line class="cls-1" x1="10.51" y1="26.52" x2="12.51" y2="26.52"/><line class="cls-1" x1="15.51" y1="26.52" x2="18.51" y2="26.52"/><line class="cls-1" x1="12.51" y1="23.52" x2="12.51" y2="26.52"/><line class="cls-1" x1="12.51" y1="24.52" x2="16.51" y2="24.52"/><line class="cls-1" x1="15.51" y1="26.52" x2="15.51" y2="24.52"/><line class="cls-1" x1="18.51" y1="26.52" x2="18.51" y2="23.52"/><line class="cls-1" x1="19.51" y1="23.52" x2="18.51" y2="23.52"/><line class="cls-1" x1="19.51" y1="22.52" x2="19.51" y2="23.52"/><line class="cls-1" x1="20.51" y1="22.52" x2="19.51" y2="22.52"/><line class="cls-1" x1="20.51" y1="21.52" x2="20.51" y2="22.52"/><line class="cls-1" x1="21.51" y1="21.52" x2="20.51" y2="21.52"/><line class="cls-1" x1="21.51" y1="16.52" x2="21.51" y2="21.52"/><line class="cls-1" x1="22.51" y1="16.52" x2="21.51" y2="16.52"/><line class="cls-1" x1="23.51" y1="16.52" x2="22.51" y2="16.52"/><line class="cls-1" x1="23.51" y1="17.52" x2="23.51" y2="16.52"/><line class="cls-1" x1="21.51" y1="13.52" x2="21.51" y2="16.52"/><line class="cls-1" x1="25.51" y1="13.52" x2="21.51" y2="13.52"/><line class="cls-1" x1="10.51" y1="26.52" x2="10.51" y2="23.52"/><line class="cls-1" x1="9.51" y1="23.52" x2="10.51" y2="23.52"/><line class="cls-1" x1="8.51" y1="22.52" x2="9.51" y2="22.52"/><line class="cls-1" x1="9.51" y1="23.52" x2="9.51" y2="22.52"/><line class="cls-1" x1="8.51" y1="21.52" x2="8.51" y2="22.52"/><line class="cls-1" x1="7.51" y1="21.52" x2="8.51" y2="21.52"/><line class="cls-1" x1="7.51" y1="20.52" x2="7.51" y2="21.52"/><line class="cls-1" x1="6.51" y1="20.52" x2="7.51" y2="20.52"/><line class="cls-1" x1="6.51" y1="19.52" x2="6.51" y2="20.52"/><line class="cls-1" x1="6.51" y1="17.52" x2="6.51" y2="19.52"/><line class="cls-1" x1="6.51" y1="16.52" x2="6.51" y2="17.52"/><line class="cls-1" x1="26.51" y1="13.52" x2="25.51" y2="13.52"/><line class="cls-1" x1="26.51" y1="12.52" x2="26.51" y2="13.52"/><line class="cls-1" x1="27.51" y1="12.52" x2="26.51" y2="12.52"/><line class="cls-1" x1="27.51" y1="8.52" x2="27.51" y2="12.52"/><line class="cls-1" x1="26.51" y1="8.52" x2="27.51" y2="8.52"/><line class="cls-1" x1="26.51" y1="7.52" x2="26.51" y2="8.52"/><line class="cls-1" x1="18.51" y1="7.52" x2="26.51" y2="7.52"/><line class="cls-1" x1="18.51" y1="8.52" x2="18.51" y2="7.52"/><line class="cls-1" x1="17.51" y1="8.52" x2="18.51" y2="8.52"/><line class="cls-1" x1="17.51" y1="14.52" x2="17.51" y2="8.52"/><line class="cls-1" x1="16.51" y1="14.52" x2="17.51" y2="14.52"/><line class="cls-1" x1="16.51" y1="15.52" x2="16.51" y2="14.52"/><line class="cls-1" x1="15.51" y1="15.52" x2="16.51" y2="15.52"/><line class="cls-1" x1="15.51" y1="16.52" x2="15.51" y2="15.52"/><line class="cls-1" x1="14.51" y1="16.52" x2="15.51" y2="16.52"/><line class="cls-1" x1="14.51" y1="17.52" x2="14.51" y2="16.52"/><line class="cls-1" x1="13.51" y1="17.52" x2="14.51" y2="17.52"/><line class="cls-1" x1="13.51" y1="18.52" x2="13.51" y2="17.52"/><line class="cls-1" x1="8.51" y1="18.52" x2="13.51" y2="18.52"/><line class="cls-1" x1="8.51" y1="17.52" x2="8.51" y2="18.52"/><line class="cls-1" x1="7.51" y1="17.52" x2="8.51" y2="17.52"/><line class="cls-1" x1="7.51" y1="16.52" x2="7.51" y2="17.52"/><line class="cls-1" x1="6.51" y1="16.52" x2="7.51" y2="16.52"/><line class="cls-1" x1="7.51" y1="17.52" x2="7.51" y2="20.52"/><line class="cls-1" x1="8.51" y1="18.52" x2="8.51" y2="21.52"/><line class="cls-1" x1="9.51" y1="18.52" x2="9.51" y2="22.52"/><line class="cls-1" x1="10.51" y1="18.52" x2="10.51" y2="23.52"/><line class="cls-1" x1="11.51" y1="18.52" x2="11.51" y2="26.52"/><line class="cls-1" x1="12.51" y1="18.52" x2="12.51" y2="23.52"/><line class="cls-1" x1="13.51" y1="18.52" x2="13.51" y2="24.52"/><line class="cls-1" x1="14.51" y1="17.52" x2="14.51" y2="24.52"/><line class="cls-1" x1="15.51" y1="16.52" x2="15.51" y2="24.52"/><line class="cls-1" x1="16.51" y1="15.52" x2="16.51" y2="26.52"/><line class="cls-1" x1="17.51" y1="14.52" x2="17.51" y2="26.52"/><line class="cls-1" x1="21.51" y1="7.52" x2="21.51" y2="13.52"/><line class="cls-1" x1="22.51" y1="7.52" x2="22.51" y2="13.52"/><line class="cls-1" x1="23.51" y1="7.52" x2="23.51" y2="13.52"/><line class="cls-1" x1="24.51" y1="7.52" x2="24.51" y2="13.52"/><line class="cls-1" x1="25.51" y1="7.52" x2="25.51" y2="12.52"/><line class="cls-1" x1="26.51" y1="8.52" x2="26.51" y2="12.52"/><line class="cls-1" x1="25.51" y1="12.52" x2="25.51" y2="13.52"/><line class="cls-1" x1="19.5" y1="9.5" x2="19.5" y2="10.5"/><line class="cls-1" x1="18.5" y1="8.5" x2="21.5" y2="8.5"/><line class="cls-1" x1="17.5" y1="11.5" x2="21.5" y2="11.5"/><line class="cls-1" x1="18.5" y1="23.5" x2="18.5" y2="11.5"/><line class="cls-1" x1="19.5" y1="22.5" x2="19.5" y2="11.5"/><line class="cls-1" x1="20.5" y1="21.5" x2="20.5" y2="11.5"/><line class="cls-1" x1="18.5" y1="24.5" x2="18.5" y2="23.5"/><line class="cls-1" x1="19.5" y1="23.5" x2="19.5" y2="22.5"/><line class="cls-1" x1="20.5" y1="22.5" x2="20.5" y2="21.5"/></svg>