<svg id="Layer_1" data-name="Layer 1" xmlns="http://www.w3.org/2000/svg" viewBox="0 0 32 32"><defs><style>.cls-1{fill:none;stroke:#000;stroke-miterlimit:10;}</style></defs><line class="cls-1" x1="11.88" y1="26.77" x2="11.88" y2="28.5"/><line class="cls-1" x1="14" y1="28.5" x2="12" y2="28.5"/><line class="cls-1" x1="17.88" y1="26.77" x2="17.88" y2="30.77"/><line class="cls-1" x1="19.88" y1="30.77" x2="17.88" y2="30.77"/><line class="cls-1" x1="10.88" y1="26.77" x2="12.88" y2="26.77"/><line class="cls-1" x1="15.88" y1="26.77" x2="18.88" y2="26.77"/><line class="cls-1" x1="12.88" y1="23.77" x2="12.88" y2="26.77"/><line class="cls-1" x1="12.88" y1="24.77" x2="16.88" y2="24.77"/><line class="cls-1" x1="15.88" y1="26.77" x2="15.88" y2="24.77"/><line class="cls-1" x1="18.88" y1="26.77" x2="18.88" y2="23.77"/><line class="cls-1" x1="19.88" y1="23.77" x2="18.88" y2="23.77"/><line class="cls-1" x1="19.88" y1="22.77" x2="19.88" y2="23.77"/><line class="cls-1" x1="20.88" y1="22.77" x2="19.88" y2="22.77"/><line class="cls-1" x1="20.88" y1="21.77" x2="20.88" y2="22.77"/><line class="cls-1" x1="21.88" y1="21.77" x2="20.88" y2="21.77"/><line class="cls-1" x1="21.88" y1="16.77" x2="21.88" y2="21.77"/><line class="cls-1" x1="22.88" y1="16.77" x2="21.88" y2="16.77"/><line class="cls-1" x1="23.88" y1="16.77" x2="22.88" y2="16.77"/><line class="cls-1" x1="23.88" y1="17.77" x2="23.88" y2="16.77"/><line class="cls-1" x1="21.88" y1="13.77" x2="21.88" y2="16.77"/><line class="cls-1" x1="25.88" y1="13.77" x2="21.88" y2="13.77"/><line class="cls-1" x1="10.88" y1="26.77" x2="10.88" y2="23.77"/><line class="cls-1" x1="9.88" y1="23.77" x2="10.88" y2="23.77"/><line class="cls-1" x1="8.88" y1="22.77" x2="9.88" y2="22.77"/><line class="cls-1" x1="9.88" y1="23.77" x2="9.88" y2="22.77"/><line class="cls-1" x1="8.88" y1="21.77" x2="8.88" y2="22.77"/><line class="cls-1" x1="7.88" y1="21.77" x2="8.88" y2="21.77"/><line class="cls-1" x1="7.88" y1="20.77" x2="7.88" y2="21.77"/><line class="cls-1" x1="6.88" y1="20.77" x2="7.88" y2="20.77"/><line class="cls-1" x1="6.88" y1="19.77" x2="6.88" y2="20.77"/><line class="cls-1" x1="6.88" y1="17.77" x2="6.88" y2="19.77"/><line class="cls-1" x1="6.88" y1="16.77" x2="6.88" y2="17.77"/><line class="cls-1" x1="26.88" y1="13.77" x2="25.88" y2="13.77"/><line class="cls-1" x1="26.88" y1="12.77" x2="26.88" y2="13.77"/><line class="cls-1" x1="27.88" y1="12.77" x2="26.88" y2="12.77"/><line class="cls-1" x1="27.88" y1="8.77" x2="27.88" y2="12.77"/><line class="cls-1" x1="26.88" y1="8.77" x2="27.88" y2="8.77"/><line class="cls-1" x1="26.88" y1="7.77" x2="26.88" y2="8.77"/><line class="cls-1" x1="18.88" y1="7.77" x2="26.88" y2="7.77"/><line class="cls-1" x1="18.88" y1="8.77" x2="18.88" y2="7.77"/><line class="cls-1" x1="17.88" y1="8.77" x2="18.88" y2="8.77"/><line class="cls-1" x1="17.88" y1="14.77" x2="17.88" y2="8.77"/><line class="cls-1" x1="16.88" y1="14.77" x2="17.88" y2="14.77"/><line class="cls-1" x1="16.88" y1="15.77" x2="16.88" y2="14.77"/><line class="cls-1" x1="15.88" y1="15.77" x2="16.88" y2="15.77"/><line class="cls-1" x1="15.88" y1="16.77" x2="15.88" y2="15.77"/><line class="cls-1" x1="14.88" y1="16.77" x2="15.88" y2="16.77"/><line class="cls-1" x1="14.88" y1="17.77" x2="14.88" y2="16.77"/><line class="cls-1" x1="13.88" y1="17.77" x2="14.88" y2="17.77"/><line class="cls-1" x1="13.88" y1="18.77" x2="13.88" y2="17.77"/><line class="cls-1" x1="8.88" y1="18.77" x2="13.88" y2="18.77"/><line class="cls-1" x1="8.88" y1="17.77" x2="8.88" y2="18.77"/><line class="cls-1" x1="7.88" y1="17.77" x2="8.88" y2="17.77"/><line class="cls-1" x1="7.88" y1="16.77" x2="7.88" y2="17.77"/><line class="cls-1" x1="6.88" y1="16.77" x2="7.88" y2="16.77"/><line class="cls-1" x1="7.88" y1="17.77" x2="7.88" y2="20.77"/><line class="cls-1" x1="8.88" y1="18.77" x2="8.88" y2="21.77"/><line class="cls-1" x1="9.88" y1="18.77" x2="9.88" y2="22.77"/><line class="cls-1" x1="10.88" y1="18.77" x2="10.88" y2="23.77"/><line class="cls-1" x1="11.88" y1="18.77" x2="11.88" y2="26.77"/><line class="cls-1" x1="12.88" y1="18.77" x2="12.88" y2="23.77"/><line class="cls-1" x1="13.88" y1="18.77" x2="13.88" y2="24.77"/><line class="cls-1" x1="14.88" y1="17.77" x2="14.88" y2="24.77"/><line class="cls-1" x1="15.88" y1="16.77" x2="15.88" y2="24.77"/><line class="cls-1" x1="16.88" y1="15.77" x2="16.88" y2="26.77"/><line class="cls-1" x1="17.88" y1="14.77" x2="17.88" y2="26.77"/><line class="cls-1" x1="18.88" y1="8.77" x2="18.88" y2="23.77"/><line class="cls-1" x1="20.88" y1="7.77" x2="20.88" y2="21.77"/><line class="cls-1" x1="21.88" y1="7.77" x2="21.88" y2="13.77"/><line class="cls-1" x1="22.88" y1="7.77" x2="22.88" y2="13.77"/><line class="cls-1" x1="23.88" y1="7.77" x2="23.88" y2="13.77"/><line class="cls-1" x1="24.88" y1="7.77" x2="24.88" y2="13.77"/><line class="cls-1" x1="25.88" y1="7.77" x2="25.88" y2="12.77"/><line class="cls-1" x1="26.88" y1="8.77" x2="26.88" y2="12.77"/><line class="cls-1" x1="25.88" y1="12.77" x2="25.88" y2="13.77"/><line class="cls-1" x1="19.88" y1="7.77" x2="19.88" y2="8.77"/><line class="cls-1" x1="19.88" y1="22.77" x2="19.88" y2="9.77"/></svg>