<svg id="Layer_1" data-name="Layer 1" xmlns="http://www.w3.org/2000/svg" viewBox="0 0 32 32"><defs><style>.cls-1{fill:none;stroke:#000;stroke-miterlimit:10;}</style></defs><line class="cls-1" x1="12.39" y1="27.38" x2="12.39" y2="31.38"/><line class="cls-1" x1="14.39" y1="31.38" x2="12.39" y2="31.38"/><line class="cls-1" x1="18.39" y1="27.38" x2="18.39" y2="29.5"/><line class="cls-1" x1="20" y1="29.5" x2="18" y2="29.5"/><line class="cls-1" x1="11.39" y1="27.38" x2="13.39" y2="27.38"/><line class="cls-1" x1="16.39" y1="27.38" x2="19.39" y2="27.38"/><line class="cls-1" x1="13.39" y1="24.38" x2="13.39" y2="27.38"/><line class="cls-1" x1="13.39" y1="25.38" x2="17.39" y2="25.38"/><line class="cls-1" x1="16.39" y1="27.38" x2="16.39" y2="25.38"/><line class="cls-1" x1="19.39" y1="27.38" x2="19.39" y2="24.38"/><line class="cls-1" x1="20.39" y1="24.38" x2="19.39" y2="24.38"/><line class="cls-1" x1="20.39" y1="23.38" x2="20.39" y2="24.38"/><line class="cls-1" x1="21.39" y1="23.38" x2="20.39" y2="23.38"/><line class="cls-1" x1="21.39" y1="22.38" x2="21.39" y2="23.38"/><line class="cls-1" x1="22.39" y1="22.38" x2="21.39" y2="22.38"/><line class="cls-1" x1="22.39" y1="17.38" x2="22.39" y2="22.38"/><line class="cls-1" x1="23.39" y1="17.38" x2="22.39" y2="17.38"/><line class="cls-1" x1="24.39" y1="17.38" x2="23.39" y2="17.38"/><line class="cls-1" x1="24.39" y1="18.38" x2="24.39" y2="17.38"/><line class="cls-1" x1="22.39" y1="14.38" x2="22.39" y2="17.38"/><line class="cls-1" x1="26.39" y1="14.38" x2="22.39" y2="14.38"/><line class="cls-1" x1="11.39" y1="27.38" x2="11.39" y2="24.38"/><line class="cls-1" x1="10.39" y1="24.38" x2="11.39" y2="24.38"/><line class="cls-1" x1="9.39" y1="23.38" x2="10.39" y2="23.38"/><line class="cls-1" x1="10.39" y1="24.38" x2="10.39" y2="23.38"/><line class="cls-1" x1="9.39" y1="22.38" x2="9.39" y2="23.38"/><line class="cls-1" x1="8.39" y1="22.38" x2="9.39" y2="22.38"/><line class="cls-1" x1="8.39" y1="21.38" x2="8.39" y2="22.38"/><line class="cls-1" x1="7.39" y1="21.38" x2="8.39" y2="21.38"/><line class="cls-1" x1="7.39" y1="20.38" x2="7.39" y2="21.38"/><line class="cls-1" x1="7.39" y1="18.38" x2="7.39" y2="20.38"/><line class="cls-1" x1="7.39" y1="17.38" x2="7.39" y2="18.38"/><line class="cls-1" x1="27.39" y1="14.38" x2="26.39" y2="14.38"/><line class="cls-1" x1="27.39" y1="13.38" x2="27.39" y2="14.38"/><line class="cls-1" x1="28.39" y1="13.38" x2="27.39" y2="13.38"/><line class="cls-1" x1="28.39" y1="9.38" x2="28.39" y2="13.38"/><line class="cls-1" x1="27.39" y1="9.38" x2="28.39" y2="9.38"/><line class="cls-1" x1="27.39" y1="8.38" x2="27.39" y2="9.38"/><line class="cls-1" x1="19.39" y1="8.38" x2="27.39" y2="8.38"/><line class="cls-1" x1="19.39" y1="9.38" x2="19.39" y2="8.38"/><line class="cls-1" x1="18.39" y1="9.38" x2="19.39" y2="9.38"/><line class="cls-1" x1="18.39" y1="15.38" x2="18.39" y2="9.38"/><line class="cls-1" x1="17.39" y1="15.38" x2="18.39" y2="15.38"/><line class="cls-1" x1="17.39" y1="16.38" x2="17.39" y2="15.38"/><line class="cls-1" x1="16.39" y1="16.38" x2="17.39" y2="16.38"/><line class="cls-1" x1="16.39" y1="17.38" x2="16.39" y2="16.38"/><line class="cls-1" x1="15.39" y1="17.38" x2="16.39" y2="17.38"/><line class="cls-1" x1="15.39" y1="18.38" x2="15.39" y2="17.38"/><line class="cls-1" x1="14.39" y1="18.38" x2="15.39" y2="18.38"/><line class="cls-1" x1="14.39" y1="19.38" x2="14.39" y2="18.38"/><line class="cls-1" x1="9.39" y1="19.38" x2="14.39" y2="19.38"/><line class="cls-1" x1="9.39" y1="18.38" x2="9.39" y2="19.38"/><line class="cls-1" x1="8.39" y1="18.38" x2="9.39" y2="18.38"/><line class="cls-1" x1="8.39" y1="17.38" x2="8.39" y2="18.38"/><line class="cls-1" x1="7.39" y1="17.38" x2="8.39" y2="17.38"/><line class="cls-1" x1="8.39" y1="18.38" x2="8.39" y2="21.38"/><line class="cls-1" x1="9.39" y1="19.38" x2="9.39" y2="22.38"/><line class="cls-1" x1="10.39" y1="19.38" x2="10.39" y2="23.38"/><line class="cls-1" x1="11.39" y1="19.38" x2="11.39" y2="24.38"/><line class="cls-1" x1="12.39" y1="19.38" x2="12.39" y2="27.38"/><line class="cls-1" x1="13.39" y1="19.38" x2="13.39" y2="24.38"/><line class="cls-1" x1="14.39" y1="19.38" x2="14.39" y2="25.38"/><line class="cls-1" x1="15.39" y1="18.38" x2="15.39" y2="25.38"/><line class="cls-1" x1="16.39" y1="17.38" x2="16.39" y2="25.38"/><line class="cls-1" x1="17.39" y1="16.38" x2="17.39" y2="27.38"/><line class="cls-1" x1="18.39" y1="15.38" x2="18.39" y2="27.38"/><line class="cls-1" x1="19.39" y1="9.38" x2="19.39" y2="24.38"/><line class="cls-1" x1="21.39" y1="8.38" x2="21.39" y2="22.38"/><line class="cls-1" x1="22.39" y1="8.38" x2="22.39" y2="14.38"/><line class="cls-1" x1="23.39" y1="8.38" x2="23.39" y2="14.38"/><line class="cls-1" x1="24.39" y1="8.38" x2="24.39" y2="14.38"/><line class="cls-1" x1="25.39" y1="8.38" x2="25.39" y2="14.38"/><line class="cls-1" x1="26.39" y1="8.38" x2="26.39" y2="13.38"/><line class="cls-1" x1="27.39" y1="9.38" x2="27.39" y2="13.38"/><line class="cls-1" x1="26.39" y1="13.38" x2="26.39" y2="14.38"/><line class="cls-1" x1="20.39" y1="8.38" x2="20.39" y2="9.38"/><line class="cls-1" x1="20.39" y1="23.38" x2="20.39" y2="10.38"/></svg>