<svg id="Layer_1" data-name="Layer 1" xmlns="http://www.w3.org/2000/svg" viewBox="0 0 32 32"><defs><style>.cls-1{fill:none;stroke:#000;stroke-miterlimit:10;}</style></defs><line class="cls-1" x1="10.5" y1="27.5" x2="10.5" y2="31.5"/><line class="cls-1" x1="12.5" y1="31.5" x2="10.5" y2="31.5"/><line class="cls-1" x1="16.5" y1="27.5" x2="16.5" y2="31.5"/><line class="cls-1" x1="18.5" y1="31.5" x2="16.5" y2="31.5"/><line class="cls-1" x1="9.5" y1="27.5" x2="11.5" y2="27.5"/><line class="cls-1" x1="14.5" y1="27.5" x2="17.5" y2="27.5"/><line class="cls-1" x1="11.5" y1="24.5" x2="11.5" y2="27.5"/><line class="cls-1" x1="11.5" y1="25.5" x2="15.5" y2="25.5"/><line class="cls-1" x1="14.5" y1="27.5" x2="14.5" y2="25.5"/><line class="cls-1" x1="17.5" y1="27.5" x2="17.5" y2="24.5"/><line class="cls-1" x1="18.5" y1="24.5" x2="17.5" y2="24.5"/><line class="cls-1" x1="18.5" y1="23.5" x2="18.5" y2="24.5"/><line class="cls-1" x1="19.5" y1="23.5" x2="18.5" y2="23.5"/><line class="cls-1" x1="19.5" y1="22.5" x2="19.5" y2="23.5"/><line class="cls-1" x1="20.5" y1="22.5" x2="19.5" y2="22.5"/><line class="cls-1" x1="20.5" y1="17.5" x2="20.5" y2="22.5"/><line class="cls-1" x1="21.5" y1="17.5" x2="20.5" y2="17.5"/><line class="cls-1" x1="22.5" y1="17.5" x2="21.5" y2="17.5"/><line class="cls-1" x1="22.5" y1="18.5" x2="22.5" y2="17.5"/><line class="cls-1" x1="20.5" y1="14.5" x2="20.5" y2="17.5"/><line class="cls-1" x1="24.5" y1="14.5" x2="20.5" y2="14.5"/><line class="cls-1" x1="9.5" y1="27.5" x2="9.5" y2="24.5"/><line class="cls-1" x1="8.5" y1="24.5" x2="9.5" y2="24.5"/><line class="cls-1" x1="7.5" y1="23.5" x2="8.5" y2="23.5"/><line class="cls-1" x1="8.5" y1="24.5" x2="8.5" y2="23.5"/><line class="cls-1" x1="7.5" y1="22.5" x2="7.5" y2="23.5"/><line class="cls-1" x1="6.5" y1="22.5" x2="7.5" y2="22.5"/><line class="cls-1" x1="6.5" y1="21.5" x2="6.5" y2="22.5"/><line class="cls-1" x1="5.5" y1="21.5" x2="6.5" y2="21.5"/><line class="cls-1" x1="5.5" y1="20.5" x2="5.5" y2="21.5"/><line class="cls-1" x1="5.5" y1="18.5" x2="5.5" y2="20.5"/><line class="cls-1" x1="5.5" y1="17.5" x2="5.5" y2="18.5"/><line class="cls-1" x1="25.5" y1="14.5" x2="24.5" y2="14.5"/><line class="cls-1" x1="25.5" y1="13.5" x2="25.5" y2="14.5"/><line class="cls-1" x1="26.5" y1="13.5" x2="25.5" y2="13.5"/><line class="cls-1" x1="26.5" y1="9.5" x2="26.5" y2="13.5"/><line class="cls-1" x1="25.5" y1="9.5" x2="26.5" y2="9.5"/><line class="cls-1" x1="25.5" y1="8.5" x2="25.5" y2="9.5"/><line class="cls-1" x1="17.5" y1="8.5" x2="25.5" y2="8.5"/><line class="cls-1" x1="17.5" y1="9.5" x2="17.5" y2="8.5"/><line class="cls-1" x1="16.5" y1="9.5" x2="17.5" y2="9.5"/><line class="cls-1" x1="16.5" y1="15.5" x2="16.5" y2="9.5"/><line class="cls-1" x1="15.5" y1="15.5" x2="16.5" y2="15.5"/><line class="cls-1" x1="15.5" y1="16.5" x2="15.5" y2="15.5"/><line class="cls-1" x1="14.5" y1="16.5" x2="15.5" y2="16.5"/><line class="cls-1" x1="14.5" y1="17.5" x2="14.5" y2="16.5"/><line class="cls-1" x1="13.5" y1="17.5" x2="14.5" y2="17.5"/><line class="cls-1" x1="13.5" y1="18.5" x2="13.5" y2="17.5"/><line class="cls-1" x1="12.5" y1="18.5" x2="13.5" y2="18.5"/><line class="cls-1" x1="12.5" y1="19.5" x2="12.5" y2="18.5"/><line class="cls-1" x1="7.5" y1="19.5" x2="12.5" y2="19.5"/><line class="cls-1" x1="7.5" y1="18.5" x2="7.5" y2="19.5"/><line class="cls-1" x1="6.5" y1="18.5" x2="7.5" y2="18.5"/><line class="cls-1" x1="6.5" y1="17.5" x2="6.5" y2="18.5"/><line class="cls-1" x1="5.5" y1="17.5" x2="6.5" y2="17.5"/><line class="cls-1" x1="6.5" y1="18.5" x2="6.5" y2="21.5"/><line class="cls-1" x1="7.5" y1="19.5" x2="7.5" y2="22.5"/><line class="cls-1" x1="8.5" y1="19.5" x2="8.5" y2="23.5"/><line class="cls-1" x1="9.5" y1="19.5" x2="9.5" y2="24.5"/><line class="cls-1" x1="10.5" y1="19.5" x2="10.5" y2="27.5"/><line class="cls-1" x1="11.5" y1="19.5" x2="11.5" y2="24.5"/><line class="cls-1" x1="12.5" y1="19.5" x2="12.5" y2="25.5"/><line class="cls-1" x1="13.5" y1="18.5" x2="13.5" y2="25.5"/><line class="cls-1" x1="14.5" y1="17.5" x2="14.5" y2="25.5"/><line class="cls-1" x1="15.5" y1="16.5" x2="15.5" y2="27.5"/><line class="cls-1" x1="16.5" y1="15.5" x2="16.5" y2="27.5"/><line class="cls-1" x1="17.5" y1="9.5" x2="17.5" y2="24.5"/><line class="cls-1" x1="19.5" y1="8.5" x2="19.5" y2="22.5"/><line class="cls-1" x1="20.5" y1="8.5" x2="20.5" y2="14.5"/><line class="cls-1" x1="21.5" y1="8.5" x2="21.5" y2="14.5"/><line class="cls-1" x1="22.5" y1="8.5" x2="22.5" y2="14.5"/><line class="cls-1" x1="23.5" y1="8.5" x2="23.5" y2="14.5"/><line class="cls-1" x1="24.5" y1="8.5" x2="24.5" y2="13.5"/><line class="cls-1" x1="25.5" y1="9.5" x2="25.5" y2="13.5"/><line class="cls-1" x1="24.5" y1="13.5" x2="24.5" y2="14.5"/><line class="cls-1" x1="18.5" y1="8.5" x2="18.5" y2="9.5"/><line class="cls-1" x1="18.5" y1="23.5" x2="18.5" y2="10.5"/></svg>