<svg id="Layer_1" data-name="Layer 1" xmlns="http://www.w3.org/2000/svg" viewBox="0 0 74 57"><defs><style>.cls-1{fill:#fff;}.cls-2,.cls-3{fill:none;stroke:#fff;stroke-width:6px;}.cls-2{stroke-miterlimit:10;}.cls-3{stroke-linecap:round;stroke-linejoin:round;}</style></defs><rect x="0.5" y="0.5" width="73" height="56" rx="4.9"/><path class="cls-1" d="M95.6,4.5A4.4,4.4,0,0,1,100,8.9V55.1a4.4,4.4,0,0,1-4.4,4.4H32.4A4.4,4.4,0,0,1,28,55.1V8.9a4.4,4.4,0,0,1,4.4-4.4H95.6m0-1H32.4A5.42,5.42,0,0,0,27,8.9V55.1a5.42,5.42,0,0,0,5.4,5.4H95.6a5.42,5.42,0,0,0,5.4-5.4V8.9a5.42,5.42,0,0,0-5.4-5.4Z" transform="translate(-27 -3.5)"/><path d="M79.5,19.5a10,10,0,0,1,10,10v11a10,10,0,0,1-10,10h-31a10,10,0,0,1-10-10v-11a10,10,0,0,1,10-10H63" transform="translate(-27 -3.5)"/><path class="cls-2" d="M79.5,19.5a10,10,0,0,1,10,10v11a10,10,0,0,1-10,10h-31a10,10,0,0,1-10-10v-11a10,10,0,0,1,10-10h4.09" transform="translate(-27 -3.5)"/><polygon class="cls-1" points="23.98 3.97 23.98 28.03 36 16 23.98 3.97"/><line class="cls-3" x1="52.5" y1="16" x2="44.5" y2="16"/></svg>